<svg width="18" height="18" viewBox="0 0 18 18" fill="none" xmlns="http://www.w3.org/2000/svg">
<g clip-path="url(#clip0_268_19)">
<path fill-rule="evenodd" clip-rule="evenodd" d="M17.0064 0H0.9936C0.4446 0 0 0.4446 0 0.9936V17.0064C0 17.5554 0.4446 18 0.9936 18H9.6138V11.0295H7.2684V8.3133H9.6138V6.309C9.6138 3.9834 11.034 2.718 13.1085 2.718C14.1021 2.718 14.9553 2.7918 15.2046 2.8251V5.2551H13.7664C12.6378 5.2551 12.42 5.7915 12.42 6.5781V8.3124H15.1101L14.7591 11.0286H12.4191V18H17.0064C17.5554 18 18 17.5554 18 17.0064V0.9936C18 0.4446 17.5554 0 17.0064 0Z" fill="black"/>
</g>
<defs>
<clipPath id="clip0_268_19">
<rect width="18" height="18" fill="white"/>
</clipPath>
</defs>
</svg>
