<svg width="31" height="22" viewBox="0 0 31 22" fill="none" xmlns="http://www.w3.org/2000/svg">
<g clip-path="url(#clip0_268_21)">
<path d="M30.3154 3.43139C30.1375 2.76816 29.7907 2.16351 29.3094 1.67766C28.828 1.1918 28.229 0.841697 27.5719 0.6622C25.1662 0 15.4843 0 15.4843 0C15.4843 0 5.80187 0.0200444 3.39622 0.682244C2.7391 0.861752 2.14004 1.21188 1.6587 1.69775C1.17735 2.18363 0.830511 2.7883 0.652719 3.45156C-0.0749338 7.76576 -0.357203 14.3396 0.672699 18.4812C0.85051 19.1445 1.19736 19.7491 1.6787 20.235C2.16005 20.7208 2.7591 21.0709 3.4162 21.2504C5.82185 21.9126 15.504 21.9126 15.504 21.9126C15.504 21.9126 25.1861 21.9126 27.5916 21.2504C28.2487 21.0709 28.8478 20.7208 29.3292 20.235C29.8105 19.7491 30.1574 19.1445 30.3352 18.4812C31.1027 14.1609 31.3392 7.5911 30.3154 3.43139Z" fill="#FF0000"/>
<path d="M12.4023 15.6518L20.4342 10.9563L12.4023 6.26074V15.6518Z" fill="white"/>
</g>
<defs>
<clipPath id="clip0_268_21">
<rect width="31" height="22" fill="white"/>
</clipPath>
</defs>
</svg>
