<svg width="16" height="16" viewBox="0 0 16 16" fill="none" xmlns="http://www.w3.org/2000/svg">
<path d="M7.77047 2.35991L8.01347 2.35891L8.44847 2.36091C9.02947 2.36491 10.0885 2.37891 11.1485 2.41791L11.3195 2.42491C12.5195 2.47291 13.6995 2.55491 14.2195 2.69691C14.5584 2.78864 14.8673 2.96754 15.1156 3.2158C15.3638 3.46406 15.5427 3.77302 15.6345 4.11191C16.1625 6.24191 16.0405 9.59191 15.6445 11.8019C15.5527 12.1408 15.3738 12.4498 15.1256 12.698C14.8773 12.9463 14.5684 13.1252 14.2295 13.2169C13.0595 13.5349 8.57947 13.5539 8.04947 13.5549L7.51247 13.5529C6.69562 13.5466 5.87889 13.5299 5.06247 13.5029L4.75247 13.4929L4.45647 13.4799C3.33647 13.4309 2.25647 13.3499 1.76647 13.2159C1.42758 13.1242 1.11862 12.9453 0.870362 12.697C0.622104 12.4488 0.443203 12.1398 0.351469 11.8009C-0.178531 9.68091 -0.0345309 6.32091 0.341469 4.12091C0.433203 3.78202 0.612104 3.47306 0.860362 3.2248C1.10862 2.97654 1.41758 2.79764 1.75647 2.70591C2.83647 2.40991 6.79647 2.36591 7.77647 2.35791L7.77047 2.35991ZM6.40047 5.55991V10.3599L10.5405 7.95991L6.40047 5.55991Z" fill="black"/>
</svg>
